<?xml version="1.0" encoding="UTF-8"?>
<svg version="1.1" xmlns="http://www.w3.org/2000/svg" width="2458" height="1595">
<path d="M0 0 C3.85056488 1.5764795 6.45170032 4.1734181 9.32964039 7.08075142 C9.85724281 7.60574655 10.38484522 8.13074168 10.92843559 8.67164576 C12.70396541 10.44085432 14.47224784 12.21713453 16.24067688 13.99343872 C17.52152788 15.27270216 18.80281643 16.55152763 20.08450574 17.82995117 C23.61236213 21.35137867 27.1339277 24.87903979 30.65451896 28.40772867 C34.44993177 32.20970719 38.25109158 36.00593218 42.05154419 39.8028717 C49.49981079 47.24609008 56.94271408 54.6946496 64.38383404 62.14501186 C73.04830232 70.81985523 81.71798628 79.48947811 90.38788667 88.1588919 C105.8596318 103.63013606 121.32653618 119.10621067 136.79077148 134.58496094 C151.79626644 149.604533 166.80524833 164.62060904 181.81811523 179.6328125 C182.74206214 180.55671945 183.66600905 181.4806264 184.61795435 182.43253054 C185.54030161 183.35483744 186.46264887 184.27714435 187.41294605 185.22739995 C204.49847333 202.31223699 221.58070646 219.40036433 238.66141338 236.49002049 C244.70226311 242.53388516 250.74408772 248.57677425 256.78621864 254.61935806 C264.15364409 261.98746636 271.51917055 269.35746713 278.88234822 276.72982045 C282.63887587 280.49095921 286.39617747 284.25131573 290.15564156 288.00951958 C293.59917901 291.45195868 297.04038714 294.89670875 300.47977104 298.34329759 C301.72250974 299.5878433 302.96608151 300.83155785 304.21058229 302.07434155 C310.35265987 308.20888446 316.38922032 314.36773976 322 321 C323.02077748 322.15729959 324.04388422 323.31255299 325.0703125 324.46484375 C332.6041875 333.00242138 339.65634415 341.82153276 346.46533203 350.94628906 C347.91434682 352.88537789 349.37582496 354.81441757 350.83984375 356.7421875 C391.92640511 411.27539293 416.76548394 476.62705183 426 544 C426.16516113 545.19786133 426.33032227 546.39572266 426.50048828 547.62988281 C431.49315858 585.9913516 431.37755069 626.69145225 426 665 C425.82307617 666.2900293 425.64615234 667.58005859 425.46386719 668.90917969 C423.01096788 686.51155085 419.6091106 703.83183634 415 721 C414.73461426 721.99016113 414.46922852 722.98032227 414.19580078 724.00048828 C395.88124183 791.33632338 360.9658843 851.33111153 313.53198242 902.32446289 C312.42235813 903.53806472 311.32804319 904.76572257 310.2434082 906.00170898 C303.36461939 913.80391338 296.02455778 921.12698358 288.66137695 928.46899414 C286.43520138 930.68979307 284.21444368 932.91590966 281.99414062 935.14257812 C280.55761229 936.57844584 279.12077389 938.01400343 277.68359375 939.44921875 C277.03128281 940.10355392 276.37897186 940.7578891 275.70689392 941.43205261 C272.58914768 944.53422493 269.43046052 947.5283895 266.09301758 950.39379883 C261.41799247 954.43436155 257.13845766 958.82724088 252.828125 963.25 C251.09564528 965.0096988 249.36255481 966.76879647 247.62890625 968.52734375 C244.9215125 971.27822183 242.21818286 974.03266089 239.52490234 976.79736328 C236.90807753 979.48042485 234.2759251 982.14759971 231.640625 984.8125 C230.83328918 985.6487793 230.02595337 986.48505859 229.19415283 987.34667969 C228.43946716 988.1049707 227.68478149 988.86326172 226.90722656 989.64453125 C225.91749847 990.65543823 225.91749847 990.65543823 224.90777588 991.68676758 C223 993 223 993 221.08453767 992.76256347 C218.69931556 991.89000392 217.52950818 990.9036628 215.7396214 989.11221689 C215.11282941 988.49216678 214.48603743 987.87211668 213.84025174 987.23327717 C213.15928691 986.5444313 212.47832208 985.85558543 211.77672195 985.14586544 C211.04441752 984.41702254 210.31211308 983.68817964 209.5576176 982.93725058 C207.08340258 980.47103329 204.62011215 977.99417941 202.15655518 975.51731873 C200.37595467 973.73802534 198.59469551 971.95939088 196.81283164 970.18136269 C192.92884762 966.30270446 189.04959645 962.41940401 185.17437553 958.53199196 C179.41201643 952.75155526 173.64110651 946.97971296 167.86838485 941.20962724 C158.15881429 931.50400202 148.45625251 921.79139859 138.75763702 912.07482719 C129.15188209 902.45133382 119.54304272 892.83093761 109.93004608 883.21467781 C109.33280558 882.61723109 108.73556507 882.01978437 108.12022637 881.4042332 C105.0872469 878.37023876 102.05421202 875.33629971 99.0211558 872.302382 C77.52649251 850.80141399 56.03879609 829.29349576 34.55517578 807.78149414 C13.6814156 786.88019012 -7.19548649 765.98203256 -28.07666016 745.08813477 C-29.04177815 744.12242491 -29.04177815 744.12242491 -30.02639347 743.13720576 C-36.48768203 736.67196171 -42.94903462 730.20678167 -49.41043413 723.74164852 C-62.57357478 710.57089881 -75.73628792 697.39972191 -88.89874268 684.22828674 C-89.50395924 683.62265831 -90.10917581 683.01702987 -90.73273227 682.39304906 C-131.16231604 641.93585359 -171.58190144 601.46866917 -212 561 C-212.64696123 563.3897475 -213.29145626 565.78011544 -213.93457031 568.17089844 C-214.1165799 568.84220795 -214.29858948 569.51351746 -214.4861145 570.20516968 C-227.50170857 618.69630673 -218.33567218 677.22712603 -193.58789062 720.46728516 C-180.23905032 742.94606214 -163.34395408 761.98791133 -144.84936523 780.33007812 C-143.25909424 781.9148596 -141.6692947 783.50011426 -140.07992554 785.08580017 C-136.68295282 788.4731353 -133.28294655 791.85738392 -129.88052177 795.23924255 C-124.48951629 800.59815739 -119.10692165 805.96546851 -113.7256012 811.33410645 C-106.17236387 818.86816768 -98.61669913 826.39978106 -91.05786133 833.92822266 C-90.34116317 834.64204392 -90.34116317 834.64204392 -89.60998625 835.37028581 C-84.27964896 840.67907711 -78.94849536 845.98704757 -73.61645508 851.29412842 C-71.68154902 853.22000112 -69.74665147 855.14588237 -67.81176758 857.07177734 C-67.33425942 857.54706385 -66.85675125 858.02235036 -66.36477315 858.51203948 C-58.37081189 866.46913648 -50.38287093 874.4322493 -42.39930111 882.39977407 C-37.0614848 887.72613807 -31.71683131 893.04551074 -26.36676204 898.35956573 C-23.02905492 901.67794746 -19.69774453 905.00269554 -16.36809921 908.32916451 C-14.83537961 909.85789919 -13.30010568 911.38407835 -11.76195335 912.90734673 C30.48725546 954.76272629 54.7864406 1009.80834084 55.3125 1069.5625 C55.09737485 1129.43314535 31.76186547 1181.12110214 -8 1225 C-10.78449418 1223.72776433 -12.83236026 1222.4171191 -14.99262142 1220.25347424 C-15.55832881 1219.69174895 -16.1240362 1219.13002365 -16.70688623 1218.55127639 C-17.31826694 1217.93406999 -17.92964765 1217.3168636 -18.55955505 1216.68095398 C-19.21689685 1216.02532103 -19.87423865 1215.36968808 -20.5514999 1214.69418746 C-22.75713411 1212.4918524 -24.95553522 1210.28243583 -27.15405273 1208.07299805 C-28.73228733 1206.4941994 -30.31096227 1204.91584083 -31.89004517 1203.33789062 C-36.18168763 1199.04682316 -40.46712461 1194.74960586 -44.7515018 1190.45128608 C-49.2339243 1185.95637042 -53.72200202 1181.46710875 -58.20948792 1176.97724915 C-65.7474563 1169.43376534 -73.28192153 1161.88680035 -80.8137207 1154.3371582 C-88.55878747 1146.57376247 -96.30592902 1138.81244703 -104.0559082 1131.05395508 C-104.77145077 1130.33762434 -104.77145077 1130.33762434 -105.50144874 1129.60682227 C-107.89531128 1127.21034899 -110.28921542 1124.81391726 -112.68314064 1122.41750658 C-129.19491148 1105.88850925 -145.70227526 1089.35512016 -162.20506287 1072.81715393 C-162.90193256 1072.11880505 -163.59880225 1071.42045617 -164.31678921 1070.7009452 C-165.59767972 1069.41731147 -166.87854257 1068.13365014 -168.15937036 1066.84995383 C-169.26923814 1065.73767734 -170.37929926 1064.62559371 -171.48959816 1063.51374757 C-172.92375775 1062.07641114 -174.35535432 1060.63651869 -175.78680515 1059.19648457 C-177.80878652 1057.18976977 -179.88552178 1055.33506713 -182.0625 1053.5 C-185.10306793 1050.87276812 -187.4886744 1048.139157 -190 1045 C-191.10205419 1044.01858855 -192.22213813 1043.0573152 -193.35227966 1042.10838318 C-199.3039263 1036.95090814 -204.80347252 1031.33628047 -210.36352539 1025.76586914 C-211.59450505 1024.53624673 -212.82569685 1023.30683667 -214.05708313 1022.07762146 C-217.38162116 1018.7576193 -220.70301583 1015.43448941 -224.02369618 1012.11062932 C-227.51026146 1008.62152051 -230.99927937 1005.13486561 -234.48789978 1001.64781189 C-240.34439976 995.7931278 -246.198796 989.9363463 -252.05200195 984.07836914 C-258.80524186 977.31968774 -265.56207651 970.56461616 -272.3207894 963.8114081 C-278.13857082 957.99817435 -283.9543891 952.18298198 -289.76859087 946.36616796 C-293.23460406 942.8986011 -296.7012766 939.43170067 -300.16972542 935.9665699 C-303.43142475 932.70777336 -306.69064112 929.44651319 -309.9480114 926.18338966 C-311.13911489 924.99097145 -312.33105616 923.79938936 -313.52392578 922.60873795 C-319.56287216 916.57998112 -325.47711335 910.51271127 -331 904 C-332.45445517 902.39231627 -333.91220895 900.78760285 -335.375 899.1875 C-360.60889503 871.11690871 -381.77300295 838.92560163 -398.07763672 804.90527344 C-398.98960996 803.02146212 -399.93119182 801.15510486 -400.87890625 799.2890625 C-438.68182656 723.61590557 -445.2021712 631.14902277 -419 487 C-418.72575195 486.09878418 -418.45150391 485.19756836 -418.16894531 484.26904297 C-405.80976314 444.23090384 -386.47196332 405.96508502 -362 372 C-361.42362793 371.19449707 -360.84725586 370.38899414 -360.25341797 369.55908203 C-353.66999701 360.38398949 -346.92089732 351.43886655 -339.51171875 342.9140625 C-337.10245769 340.11887005 -334.7975562 337.26219451 -332.5 334.375 C-328.55760691 329.52119345 -324.26489824 325.13713148 -319.7734375 320.80078125 C-317.76915461 318.77673783 -315.94709243 316.78540157 -314.11482143 314.62062836 C-308.82876153 308.55879097 -303.08056822 302.9459221 -297.38941956 297.26916504 C-296.10447674 295.98378569 -294.81975389 294.69818642 -293.53523105 293.41238737 C-290.01879983 289.89372738 -286.49927042 286.37818089 -282.97921383 282.86314821 C-279.17857787 279.06683982 -275.38084168 275.26763249 -271.58274841 271.46878052 C-265.00651727 264.8920256 -258.42846098 258.3171008 -251.84915352 251.74342346 C-242.33663807 242.23904287 -232.82689255 232.73189475 -223.31781589 223.22407383 C-207.88904491 207.79749024 -192.45804313 192.37314009 -177.02563477 176.95019531 C-162.03650598 161.97024871 -147.0484302 146.98924983 -132.06176758 132.00683594 C-131.13763801 131.0829691 -130.21350845 130.15910226 -129.26137496 129.20723945 C-124.6251901 124.57235965 -119.98902592 119.93745917 -115.35287201 115.30254841 C-76.90511959 76.86515887 -38.45374512 38.43139423 0 0 Z M-3.30996799 308.18692017 C-3.86949634 308.7473703 -4.42902468 309.30782043 -5.00550842 309.88525391 C-5.6463588 310.52472961 -6.28720917 311.16420532 -6.94747925 311.82305908 C-7.6545401 312.53371521 -8.36160095 313.24437134 -9.09008789 313.9765625 C-9.83150528 314.71783386 -10.57292267 315.45910522 -11.33680725 316.22283936 C-13.80113286 318.68786488 -16.2618918 321.15641987 -18.72265625 323.625 C-20.42494838 325.32915603 -22.12746057 327.03309226 -23.83018494 328.73681641 C-28.32212315 333.23258199 -32.81105095 337.73134195 -37.29937744 342.23071289 C-41.8755196 346.81706446 -46.45447614 351.40060422 -51.03320312 355.984375 C-60.02490627 364.98681934 -69.01353035 373.9923316 -78 383 C-76.48402252 386.56139893 -74.40200555 388.84710918 -71.67526245 391.57197571 C-70.76693161 392.48450104 -69.85860077 393.39702637 -68.92274475 394.33720398 C-67.91327366 395.34119168 -66.90370305 396.34507931 -65.89404297 397.34887695 C-64.83242768 398.41156544 -63.77124556 399.47468681 -62.71046448 400.53820801 C-59.82834259 403.42517794 -56.94000679 406.3058566 -54.05039358 409.18532586 C-51.02258568 412.20434158 -48.00005976 415.22863693 -44.97683716 418.25224304 C-39.89421141 423.33393197 -34.80772769 428.4117331 -29.71875 433.48706055 C-23.84884475 439.34127816 -17.98414382 445.20066734 -12.12244499 451.06310111 C-5.87005119 457.31617279 0.38615482 463.56541975 6.64346838 469.81356788 C8.4391459 471.60712194 10.23411901 473.40137837 12.02893448 475.19579506 C14.8615964 478.02744542 17.69682019 480.85650687 20.53396797 483.68366241 C21.56994919 484.71674524 22.60511149 485.7506501 23.6393528 486.78547478 C25.06170624 488.20832643 26.48747548 489.62776094 27.9133606 491.04707336 C28.7071921 491.83922902 29.5010236 492.63138468 30.3189106 493.44754505 C32.46145128 495.48729 34.63275605 497.43399071 36.86865807 499.36781693 C40.80175208 502.78578153 44.51338263 506.3757181 48.18811035 510.06785583 C48.86464834 510.7435394 49.54118632 511.41922296 50.23822546 512.11538178 C52.48215758 514.35767978 54.72252026 516.60350899 56.96289062 518.84936523 C58.57959871 520.46635567 60.19652757 522.08312539 61.81365967 523.69969177 C66.18718889 528.07293487 70.55763469 532.44924758 74.92752266 536.82612872 C79.50079017 541.40566049 84.07690223 545.98234806 88.65270996 550.55934143 C96.32737856 558.23676192 104.00030021 565.91592373 111.671875 573.59643555 C119.57043651 581.50418889 127.47005717 589.4108817 135.37109375 597.31616211 C135.85885924 597.80419032 136.34662472 598.29221853 136.84917098 598.79503547 C139.29637634 601.24354596 141.74360243 603.69203573 144.19083881 606.14051521 C164.46377252 626.42380024 184.73304199 646.71074419 205 667 C206.71980293 663.72873427 207.48106408 660.97815873 208.03515625 657.30859375 C208.20466797 656.19806641 208.37417969 655.08753906 208.54882812 653.94335938 C208.71833984 652.78642578 208.88785156 651.62949219 209.0625 650.4375 C209.23587891 649.30763672 209.40925781 648.17777344 209.58789062 647.01367188 C217.88049282 591.82497451 207.22924976 533.47568739 174.61328125 487.5859375 C172.46060245 484.67813054 170.25705177 481.82738206 168 479 C167.26007813 478.06800781 166.52015625 477.13601563 165.7578125 476.17578125 C156.26007831 464.39398988 145.8281019 453.68224635 135.1328125 443.00341797 C133.64523523 441.51448339 132.15787028 440.02533665 130.67070007 438.53599548 C126.65915792 434.51992182 122.64449245 430.50698442 118.62909317 426.49476767 C114.4226949 422.29091096 110.21874799 418.08460395 106.0144043 413.87869263 C98.96533808 406.82781176 91.91417583 399.77903217 84.86181641 392.73144531 C76.698757 384.57384619 68.53933192 376.41262521 60.3817482 368.2495507 C53.37367956 361.23695348 46.36367597 354.22629497 39.35203171 347.21727288 C35.16539216 343.03219507 30.97943782 338.84643794 26.79522705 334.65893173 C22.87076364 330.73159268 18.94388708 326.806683 15.01508522 322.88368416 C13.56977176 321.43969914 12.12532003 319.99485103 10.68176842 318.54910469 C8.7208822 316.58551075 6.75698236 314.62498337 4.79223633 312.66525269 C3.92451442 311.79418469 3.92451442 311.79418469 3.03926277 310.90551937 C0.17168905 307.14380156 0.17168905 307.14380156 -3.30996799 308.18692017 Z " fill="#18726D" transform="translate(601,182)"/>
<path d="M0 0 C1.11503906 0.00644531 2.23007813 0.01289062 3.37890625 0.01953125 C6.4375 0.1875 6.4375 0.1875 8.29980469 0.69848633 C10.84250913 1.28014885 13.09188161 1.24877724 15.69921875 1.1796875 C49.4317156 0.55623466 49.4317156 0.55623466 60.4375 8.1875 C61.85095703 9.16589844 61.85095703 9.16589844 63.29296875 10.1640625 C74.46010546 18.23769426 84.53506195 26.81356671 87.93359375 40.66015625 C88.60873314 45.38613197 88.76379857 50.04267376 88.8125 54.8125 C88.82643799 55.69510498 88.84037598 56.57770996 88.85473633 57.48706055 C88.78292046 67.47506234 86.21355495 74.2887505 79.33203125 81.546875 C73.769707 86.62127607 67.61791297 90.90436795 61.4375 95.1875 C63.0301616 99.64184233 65.29353785 103.48596559 67.75 107.5 C68.15589355 108.16862061 68.56178711 108.83724121 68.97998047 109.52612305 C70.12883847 111.41550445 71.28284763 113.30165669 72.4375 115.1875 C72.91832031 115.9815625 73.39914062 116.775625 73.89453125 117.59375 C75.9855219 121.00647052 78.21109651 124.26127443 80.5625 127.5 C85.67776711 134.71094922 89.92698394 142.4791789 94.26928711 150.17041016 C95.22353831 151.81806396 96.25223272 153.42240934 97.30078125 155.01171875 C98.97682547 158.21981714 98.2588863 159.94455107 97.234375 163.26171875 C95.26734696 168.01536985 92.12601181 171.16291536 87.4375 173.1875 C84.63432498 173.70597343 82.18955253 173.97975755 79.4375 173.1875 C74.98683198 169.35250772 71.50909304 164.63716501 67.9375 160 C67.33164063 159.2155249 66.72578125 158.4310498 66.1015625 157.62280273 C48.25941154 134.39700483 48.25941154 134.39700483 43.046875 124.1328125 C39.27827131 117.23590186 34.75913222 110.7468457 30.4375 104.1875 C28.82681641 104.4040625 28.82681641 104.4040625 27.18359375 104.625 C25.74742644 104.81273429 24.31122676 105.00022109 22.875 105.1875 C22.17052734 105.28289062 21.46605469 105.37828125 20.74023438 105.4765625 C16.26382145 106.05416417 11.95088762 106.28239383 7.4375 106.1875 C6.83521451 115.41400109 6.40705499 124.63268232 6.1655426 133.876297 C5.55366238 157.27530951 5.55366238 157.27530951 4.5625 167.375 C4.49619385 168.11548584 4.4298877 168.85597168 4.36157227 169.61889648 C3.76845366 174.931644 2.39965218 178.56171677 -1.75 182 C-6.94723341 184.19438744 -11.1042681 183.64927343 -16.3125 182 C-19.78395467 180.06399643 -21.48015705 178.55128477 -23.5625 175.1875 C-24.60555794 171.29854978 -24.62571637 167.73004693 -24.48974609 163.71972656 C-24.44854645 162.42879089 -24.4073468 161.13785522 -24.36489868 159.80780029 C-24.31379896 158.39790051 -24.26247194 156.98800896 -24.2109375 155.578125 C-24.16094832 154.10232801 -24.11134435 152.62651794 -24.06210327 151.1506958 C-23.93063015 147.27085729 -23.7908929 143.39136549 -23.647995 139.51193237 C-23.56485639 137.25156534 -23.48323033 134.99114841 -23.40197754 132.73071289 C-23.11090641 124.67930819 -22.79908504 116.62896891 -22.46243668 108.57933807 C-22.30716381 104.86609589 -22.15619292 101.15279554 -22.015625 97.43896484 C-21.42994323 82.01988822 -20.6630335 66.81439574 -18.20898438 51.55566406 C-17.24800958 45.45300957 -17.07928716 39.35679593 -17 33.1875 C-16.61639719 9.29046561 -16.61639719 9.29046561 -11.5625 2.1875 C-7.74936438 0.00949972 -4.33316786 -0.05523157 0 0 Z M19.13671875 28.6796875 C18.06639404 28.95925293 16.99606934 29.23881836 15.89331055 29.52685547 C14.67768433 29.85387451 14.67768433 29.85387451 13.4375 30.1875 C12.86547343 36.23789806 12.29587212 42.28851769 11.72851562 48.33935547 C11.53517201 50.39768644 11.34116618 52.45595532 11.14648438 54.51416016 C10.86674608 57.47282081 10.58939111 60.4316967 10.3125 63.390625 C10.22500488 64.31055237 10.13750977 65.23047974 10.04736328 66.17828369 C9.96728027 67.0388739 9.88719727 67.89946411 9.8046875 68.78613281 C9.73362793 69.54114075 9.66256836 70.29614868 9.58935547 71.07403564 C9.4432665 73.10724407 9.4375 75.14904998 9.4375 77.1875 C25.62805183 78.29140126 42.87768562 73.45170256 55.7734375 63.359375 C58.37998352 60.64269323 59.39405926 58.45297116 60 54.75 C58.91964459 47.90774909 56.79053697 41.87935426 51.4375 37.1875 C41.18949211 30.07131116 31.55141373 25.39519657 19.13671875 28.6796875 Z " fill="#0E6E6B" transform="translate(1268.5625,703.8125)"/>
<path d="M0 0 C1.67255859 0.02320313 1.67255859 0.02320313 3.37890625 0.046875 C6.4375 0.25 6.4375 0.25 8.29980469 0.76318359 C10.84205451 1.34212902 13.09290968 1.31125 15.69921875 1.2421875 C38.13124184 0.82759298 53.3615616 2.41609797 71.4375 16.25 C72.28828125 16.88808594 73.1390625 17.52617188 74.015625 18.18359375 C76.58615372 20.37683519 78.48994491 22.59912544 80.5 25.3125 C81.15097656 26.16972656 81.80195312 27.02695312 82.47265625 27.91015625 C87.55847933 36.55504439 89.07046107 44.49420619 88.875 54.4375 C88.88208984 55.46552734 88.88917969 56.49355469 88.89648438 57.55273438 C88.81126064 67.79924981 86.26331251 74.12990268 79.19140625 81.64453125 C73.94893293 86.60443154 67.92345838 92.00702081 61.4375 95.25 C62.9106919 99.31631031 64.88855621 102.7796844 67.1875 106.4375 C69.65992554 110.38601715 72.0927308 114.34895398 74.4375 118.375 C76.43959549 121.74385934 78.61238347 124.83210314 81 127.9375 C85.25176007 133.70893213 88.89241712 139.80940137 92.5 146 C93.0969165 146.99475342 93.69383301 147.98950684 94.30883789 149.0144043 C98.42517578 156.20757641 98.42517578 156.20757641 98.484375 161.21484375 C97.49154176 164.09331923 96.67493433 165.84649504 94.625 168.0625 C94.12355469 168.62582031 93.62210938 169.18914062 93.10546875 169.76953125 C89.75761144 172.74104863 86.16324303 174.10184328 81.62109375 173.91015625 C76.4925195 172.35965706 73.54084792 167.35847194 70.4375 163.25 C69.90286133 162.54746094 69.36822266 161.84492187 68.81738281 161.12109375 C64.60685502 155.55726608 60.50314315 149.92027596 56.4375 144.25 C55.98810059 143.62625488 55.53870117 143.00250977 55.07568359 142.35986328 C49.84846651 135.0785737 45.13643446 127.56994798 40.58984375 119.85546875 C38.07096046 115.59597689 35.37562337 111.45545246 32.65234375 107.32421875 C31.4375 105.25 31.4375 105.25 31.4375 103.25 C30.261875 103.559375 29.08625 103.86875 27.875 104.1875 C21.15553595 105.70584043 14.29705634 105.9065703 7.4375 106.25 C7.44910156 106.84425781 7.46070313 107.43851563 7.47265625 108.05078125 C7.48167969 108.87964844 7.49070312 109.70851563 7.5 110.5625 C7.51160156 111.36300781 7.52320313 112.16351562 7.53515625 112.98828125 C7.45282694 115.73808022 7.23738711 118.39863673 6.9609375 121.1328125 C6.33923016 127.65936537 6.19906729 134.17907021 6.0501709 140.73080444 C5.57701272 160.36312726 5.57701272 160.36312726 4.6875 169.9375 C4.63795166 170.62980713 4.58840332 171.32211426 4.53735352 172.03540039 C4.00220597 176.93040812 2.2182838 179.19933762 -1.5625 182.25 C-8.01207502 184.39985834 -12.88173026 183.53078508 -18.80078125 180.61328125 C-21.9154193 178.20306245 -23.41012224 175.40563888 -23.9229126 171.51661682 C-23.91515808 170.52185837 -23.90740356 169.52709991 -23.89941406 168.50219727 C-23.8963324 167.35645737 -23.89325073 166.21071747 -23.89007568 165.03025818 C-23.86963196 163.78406204 -23.84918823 162.53786591 -23.828125 161.25390625 C-23.81654358 159.93612686 -23.80496216 158.61834747 -23.79302979 157.26063538 C-23.63608066 142.1554502 -23.10688032 127.05643776 -22.50048828 111.96362305 C-22.37299896 108.77801934 -22.25510488 105.59229151 -22.14599609 102.40600586 C-21.54708639 84.97136695 -20.6288009 67.7984107 -17.90716553 50.54881287 C-16.7747927 43.37186905 -16.3020528 36.52333571 -16.49293518 29.26791382 C-16.69977915 20.78030919 -16.91221528 10.23468444 -11.5625 3.25 C-7.72283207 0.22041639 -4.82388945 -0.1117935 0 0 Z M13.4375 30.25 C12.1175 45.76 10.7975 61.27 9.4375 77.25 C23.26914671 77.25 33.82605401 75.35928891 46.0625 69.375 C46.7131543 69.05982422 47.36380859 68.74464844 48.03417969 68.41992188 C52.67902774 66.01183961 56.03069713 63.24097392 59.4375 59.25 C60.88539391 54.48912849 59.58907991 48.74225754 57.6640625 44.2265625 C52.43551012 35.80093351 42.78344985 30.79441822 33.5625 27.9375 C25.97556688 26.26837471 21.85854138 28.30668276 13.4375 30.25 Z " fill="#0E6E6B" transform="translate(1581.5625,703.75)"/>
<path d="M0 0 C0.61875 0.94875 1.2375 1.8975 1.875 2.875 C2.473125 3.720625 3.07125 4.56625 3.6875 5.4375 C5.47189054 10.60284104 5.65525147 15.47384176 4.875 20.875 C2.90835044 24.04701542 1.58409999 25.34133906 -1.99291992 26.45825195 C-8.13576642 27.81772856 -14.23288626 28.45379659 -20.5 28.9375 C-22.4455756 29.0917691 -24.39090545 29.24917891 -26.3359375 29.41015625 C-27.18462402 29.475979 -28.03331055 29.54180176 -28.90771484 29.60961914 C-31.29522567 29.81993849 -31.29522567 29.81993849 -34.125 30.875 C-36.51649969 31.23812214 -38.91328145 31.56697595 -41.3125 31.875 C-43.22095703 32.1225 -43.22095703 32.1225 -45.16796875 32.375 C-49.15321302 32.87856492 -53.13888275 33.37839807 -57.125 33.875 C-59.80230216 53.80667455 -59.80230216 53.80667455 -60.125 73.875 C-59.10148437 73.6584375 -58.07796875 73.441875 -57.0234375 73.21875 C-46.46606707 71.18053558 -36.04829064 70.54294186 -25.3125 70.5 C-24.00780762 70.48646484 -22.70311523 70.47292969 -21.35888672 70.45898438 C-20.12025879 70.46478516 -18.88163086 70.47058594 -17.60546875 70.4765625 C-16.50098389 70.47994629 -15.39649902 70.48333008 -14.25854492 70.48681641 C-9.50155143 71.07611283 -6.21809208 72.8256316 -2.78125 76.125 C-0.70116885 79.57871964 -0.59041163 81.86274929 -0.625 85.875 C-0.60953125 87.669375 -0.60953125 87.669375 -0.59375 89.5 C-1.23127635 93.55016742 -2.09846711 95.12360646 -5.125 97.875 C-11.4583602 100.56034473 -18.45627923 100.55326195 -25.25 101 C-26.47944336 101.08491699 -27.70888672 101.16983398 -28.97558594 101.25732422 C-39.70335523 101.94849629 -50.38044807 102.08430945 -61.125 101.875 C-61.15005615 102.78040527 -61.1751123 103.68581055 -61.20092773 104.61865234 C-62.10425347 136.8557055 -62.10425347 136.8557055 -63.125 152.875 C-58.66365427 153.16514373 -54.20199398 153.449695 -49.73999023 153.72949219 C-48.22817819 153.82503242 -46.71645505 153.9219921 -45.20483398 154.02050781 C-33.94557792 154.75293868 -22.69724689 155.47313466 -11.4375 154.375 C12.20924111 152.32561577 12.20924111 152.32561577 17.375 156.625 C21.77159591 161.4612555 22.26976327 165.88029368 22.1171875 172.24609375 C21.80510562 175.63369225 21.26009318 177.41296833 18.875 179.875 C12.47740047 183.19227383 6.41485788 184.03510481 -0.6875 184.4375 C-1.41984863 184.4792334 -2.15219727 184.5209668 -2.90673828 184.56396484 C-8.77090027 184.86586013 -14.62848806 184.98162542 -20.5 185 C-21.2947876 185.00459229 -22.0895752 185.00918457 -22.90844727 185.01391602 C-26.99561678 185.00336794 -30.99713716 184.81580687 -35.0625 184.390625 C-40.03895872 183.89969347 -44.98056339 183.74665217 -49.9765625 183.6640625 C-50.76727142 183.64977203 -51.55798035 183.63548157 -52.37265015 183.62075806 C-55.6624401 183.56308879 -58.95206719 183.50844208 -62.2421875 183.47363281 C-82.06710757 183.24692828 -82.06710757 183.24692828 -90.125 177.875 C-90.68235374 175.23226654 -91.02157529 172.80286182 -91.25 170.125 C-91.32637695 169.29572998 -91.40275391 168.46645996 -91.48144531 167.61206055 C-93.08366927 148.69388635 -93.45741913 129.99630756 -92.03771973 111.06524658 C-91.26221515 100.70509857 -91.02367731 90.44981743 -91.125 80.0625 C-91.58142016 23.3101028 -91.58142016 23.3101028 -82.125 10.875 C-78.5959876 9.05332419 -74.93762076 7.95489972 -71.125 6.875 C-70.17915039 6.60413574 -69.23330078 6.33327148 -68.25878906 6.05419922 C-13.03393374 -8.86307494 -13.03393374 -8.86307494 0 0 Z " fill="#0E6E6B" transform="translate(1501.125,697.125)"/>
<path d="M0 0 C9.73170173 -0.5848851 9.73170173 -0.5848851 13.55859375 1.79003906 C18.22287315 6.46986606 19.33281594 10.75884671 19.33984375 17.26660156 C19.35917969 18.46542969 19.37851563 19.66425781 19.3984375 20.89941406 C18.90234375 24.14160156 18.90234375 24.14160156 17.5 26.44628906 C11.09432543 30.62683457 2.41319908 30.48699076 -5.03515625 31.07910156 C-12.22208436 31.70887727 -19.34532901 32.51920449 -26.47265625 33.64160156 C-27.62109009 33.81937134 -27.62109009 33.81937134 -28.79272461 34.00073242 C-30.90287618 34.34513722 -32.99885279 34.73426465 -35.09765625 35.14160156 C-36.38929687 35.37878906 -37.6809375 35.61597656 -39.01171875 35.86035156 C-42.30801701 36.81412115 -42.30801701 36.81412115 -43.25097656 39.73388672 C-44.18261904 43.48355963 -44.54459575 47.10444706 -44.73046875 50.94628906 C-44.77203094 51.67026886 -44.81359314 52.39424866 -44.85641479 53.14016724 C-44.98621838 55.43196045 -45.10461414 57.72417554 -45.22265625 60.01660156 C-45.30914023 61.57914357 -45.39637228 63.14164436 -45.484375 64.70410156 C-45.69745649 68.51617945 -45.90031571 72.32867772 -46.09765625 76.14160156 C-44.99035156 75.92503906 -43.88304687 75.70847656 -42.7421875 75.48535156 C-32.05688554 73.56021595 -21.5816906 72.81567886 -10.72265625 72.76660156 C-9.4694458 72.75306641 -8.21623535 72.73953125 -6.92504883 72.72558594 C-5.7367749 72.73138672 -4.54850098 72.7371875 -3.32421875 72.74316406 C-2.26799316 72.74654785 -1.21176758 72.74993164 -0.12353516 72.75341797 C4.65654606 73.36664446 7.91502298 75.1009121 11.21484375 78.57910156 C14.17054119 83.06738286 14.18403957 86.78938104 13.90234375 92.14160156 C12.88959297 95.56937343 11.82414259 98.0258162 8.90234375 100.14160156 C2.29663349 102.54452145 -4.43956888 102.81180557 -11.41015625 103.26660156 C-12.64950928 103.35296875 -13.8888623 103.43933594 -15.16577148 103.52832031 C-23.07282845 104.04583953 -30.93305045 104.33401295 -38.85473633 104.06787109 C-42.55900447 103.97276212 -43.90769719 104.01496219 -47.09765625 106.14160156 C-47.42400691 109.00032625 -47.56273672 111.65256307 -47.57421875 114.51660156 C-47.59758804 115.77525024 -47.59758804 115.77525024 -47.62142944 117.05932617 C-47.66904735 119.75340708 -47.69668874 122.44723243 -47.72265625 125.14160156 C-47.77117695 128.66254429 -47.82767822 132.18332094 -47.88671875 135.70410156 C-47.89954895 136.54279785 -47.91237915 137.38149414 -47.92559814 138.24560547 C-48.02804589 143.92599988 -48.38084008 149.50108092 -49.09765625 155.14160156 C-44.63631052 155.4317453 -40.17465023 155.71629656 -35.71264648 155.99609375 C-34.20083444 156.09163399 -32.6891113 156.18859367 -31.17749023 156.28710938 C-19.91823417 157.01954024 -8.66990314 157.73973622 2.58984375 156.64160156 C26.23658486 154.59221733 26.23658486 154.59221733 31.40234375 158.89160156 C35.9548426 163.89935029 36.41823782 168.68752655 36.265625 175.29003906 C35.90234375 178.14160156 35.90234375 178.14160156 34.02734375 181.20410156 C22.20403889 188.53455058 6.91008201 187.20219172 -6.53515625 187.26660156 C-7.33872559 187.27135498 -8.14229492 187.2761084 -8.97021484 187.28100586 C-12.8669995 187.27018368 -16.66819944 187.11081082 -20.5390625 186.65722656 C-25.30166227 186.13602068 -30.0306279 186.01015803 -34.81640625 185.93066406 C-35.60551895 185.9163736 -36.39463165 185.90208313 -37.20765686 185.88735962 C-40.49987117 185.82966994 -43.79192922 185.77514452 -47.08447266 185.74023438 C-66.34195374 185.51945282 -66.34195374 185.51945282 -75.09765625 181.14160156 C-75.6953125 178.80566406 -75.6953125 178.80566406 -76.16015625 175.76660156 C-76.31613281 174.78949219 -76.47210937 173.81238281 -76.6328125 172.80566406 C-76.78621094 171.59652344 -76.93960937 170.38738281 -77.09765625 169.14160156 C-77.18885742 168.43874023 -77.28005859 167.73587891 -77.37402344 167.01171875 C-78.37198286 158.02298104 -78.24842449 149.00290812 -78.22802734 139.97167969 C-78.2226685 137.14805736 -78.22799782 134.32459406 -78.234375 131.50097656 C-78.23695709 123.56976102 -78.18275491 115.7578782 -77.31152344 107.8671875 C-76.87188386 102.26429224 -77.07262627 96.62639233 -77.13729858 91.01022339 C-77.79251419 26.69674368 -77.79251419 26.69674368 -68.09765625 14.14160156 C-63.97771244 11.06313054 -59.50325815 9.94185526 -54.59765625 8.70410156 C-53.76669434 8.49164795 -52.93573242 8.27919434 -52.07958984 8.06030273 C-34.85650307 3.75855137 -17.70127232 1.19491829 0 0 Z " fill="#0D6E6B" transform="translate(1800.09765625,694.8583984375)"/>
<path d="M0 0 C3.25048093 3.62638688 4 7.19690612 4 12 C3.04157791 16.5307226 1.57089547 19.05926255 -2 22 C-5.15768898 23.91230734 -7.45333174 24.24503326 -11.125 24.1875 C-12.176875 24.17332031 -13.22875 24.15914062 -14.3125 24.14453125 C-17.02987432 24.03802399 -19.72617936 23.89130932 -22.4375 23.69921875 C-39.99517729 22.45877069 -52.73593717 25.75767249 -66.4777832 37.41235352 C-72.23465842 42.68912409 -75.10703768 48.76759421 -78 56 C-78.70382813 57.69769531 -78.70382813 57.69769531 -79.421875 59.4296875 C-86.74443858 77.73609644 -90.37527007 96.43777186 -83.125 115.5625 C-79.72284962 123.13383102 -75.37348145 126.46941956 -68 130 C-56.86141448 133.71286184 -41.85978614 130.65555793 -31 127 C-28.47146752 125.63848251 -26.54510287 124.33270198 -24.47265625 122.3671875 C-23 121 -23 121 -20.93359375 120.0703125 C-18.4694378 118.70631506 -18.13789456 117.54906301 -17 115 C-15.74150813 113.12315823 -14.44667891 111.27039434 -13.125 109.4375 C-12.44695313 108.48746094 -11.76890625 107.53742188 -11.0703125 106.55859375 C-7.98689877 102.7479598 -5.54993713 100.69525588 -0.625 100.125 C3.77445147 99.79378107 6.32438259 100.38622762 10 103 C13.48093423 106.17042836 15.66097533 108.90315548 17.0625 113.4375 C16.91065078 122.09290553 12.37533152 127.56406495 7 134 C6.2575 134.99 5.515 135.98 4.75 137 C-7.32105486 151.15498289 -25.84606792 158.76222346 -44 161 C-48.7484599 161.25607211 -53.49530688 161.27644318 -58.25 161.3125 C-59.50941406 161.34150391 -60.76882812 161.37050781 -62.06640625 161.40039062 C-74.71022657 161.48573313 -83.59117769 158.44105773 -93 150 C-93.60457031 149.46503906 -94.20914063 148.93007813 -94.83203125 148.37890625 C-108.40285261 135.6045665 -116.42555872 118.66088737 -117.28125 100.078125 C-117.50908167 91.51895741 -117.15213786 83.08645741 -115.8125 74.625 C-115.71179199 73.97370117 -115.61108398 73.32240234 -115.50732422 72.65136719 C-113.06240416 59.25860185 -107.45830784 47.22635236 -101.25 35.25 C-100.22141848 33.24303522 -99.19579982 31.23459387 -98.17181396 29.22528076 C-97.25669941 27.43304929 -96.33414419 25.64462267 -95.41113281 23.85644531 C-93.93447891 21.03122039 -93.93447891 21.03122039 -93 18 C-90.66186523 16.30175781 -90.66186523 16.30175781 -87.55859375 14.453125 C-86.72651398 13.95454483 -86.72651398 13.95454483 -85.87762451 13.44589233 C-84.07068785 12.36924483 -82.25532807 11.30814273 -80.4375 10.25 C-79.82186188 9.88928406 -79.20622375 9.52856812 -78.57192993 9.15692139 C-56.14068234 -3.95668599 -24.31737592 -16.9939963 0 0 Z " fill="#0F6F6C" transform="translate(2303,713)"/>
<path d="M0 0 C3.21943289 3.37273921 4.24013079 5.9446457 4.5 10.5 C4.27403455 14.97411596 3.05055526 17.62833366 0 21 C-6.44338089 25.83253567 -14.82969205 24.23189754 -22.4296875 23.6953125 C-39.80380362 22.48443333 -50.80933694 25.26839495 -64.45703125 36.71875 C-65.29621094 37.4715625 -66.13539062 38.224375 -67 39 C-67.82757812 39.69222656 -68.65515625 40.38445313 -69.5078125 41.09765625 C-73.08858082 45.26773597 -74.95304757 49.89640379 -77.0625 54.9375 C-77.49933105 55.97438965 -77.93616211 57.0112793 -78.38623047 58.07958984 C-79.61583963 61.04370227 -80.81634611 64.01727701 -82 67 C-82.27859863 67.69399902 -82.55719727 68.38799805 -82.84423828 69.10302734 C-88.18347905 82.88694716 -88.07592733 101.13256654 -83 115 C-79.81554177 121.8996595 -75.3168523 126.25111424 -68.5625 129.8125 C-56.40138781 133.80501608 -38.45469265 131.25556626 -27.07421875 125.52734375 C-20.43574821 120.67747667 -15.16195829 113.64830461 -11 106.625 C-8.23376458 102.99431601 -5.37552998 101.26009079 -1 100 C4.16454012 99.47644696 7.88458447 100.50430416 11.9375 103.75 C15.63562035 107.35395525 16.79349934 110.17591088 17.375 115.3125 C16.218412 126.68561538 6.29960487 136.77626983 -2 144 C-17.62279868 156.42844638 -35.97254788 161.17804404 -55.66577148 161.29516602 C-57.66478503 161.31230525 -59.66351094 161.35619557 -61.66210938 161.40039062 C-75.14142731 161.48787497 -84.16510934 158.20964847 -94 149 C-96.5220782 146.46235341 -98.78786861 143.81041238 -101 141 C-101.6703125 140.16597656 -102.340625 139.33195313 -103.03125 138.47265625 C-117.18300726 120.07009131 -118.44043948 98.86529731 -115.6875 76.6328125 C-113.14104049 58.29981977 -104.97408157 42.12295159 -96.13037109 26.10791016 C-94.99721019 24.06154199 -94.99721019 24.06154199 -94.17041016 22.10693359 C-91.3554284 16.08955675 -86.26268735 13.63089279 -80.625 10.5 C-79.63854492 9.93684082 -78.65208984 9.37368164 -77.63574219 8.79345703 C-74.77022191 7.17053651 -71.89052548 5.57787951 -69 4 C-68.26168945 3.59620117 -67.52337891 3.19240234 -66.76269531 2.77636719 C-47.59329265 -7.57188531 -19.36107904 -13.37809684 0 0 Z " fill="#0F6F6C" transform="translate(1980,713)"/>
<path d="M0 0 C5.93608632 2.10875054 11.30138744 7.78731587 14.703125 13.0234375 C16.73278564 17.79264009 15.27747516 21.91285601 13.44921875 26.53125 C8.89890908 35.47285314 1.818564 41.94177961 -5.34765625 48.80859375 C-7.93520958 51.28988146 -10.30272678 53.80049828 -12.5703125 56.57421875 C-15.37101848 59.86963861 -18.44101796 62.57421558 -21.76268005 65.31809998 C-39.16588257 78.91998604 -39.16588257 78.91998604 -48.28599548 98.09786987 C-49.14575978 107.76039006 -48.00925231 117.34567341 -46.50390625 126.88671875 C-45.40783141 134.95314451 -45.0355476 143.06120603 -44.7265625 151.18969727 C-44.66121933 152.78521414 -44.58529272 154.3803312 -44.49902344 155.97485352 C-44.37400461 158.30320987 -44.28312357 160.63078027 -44.19921875 162.9609375 C-44.1546756 163.66731857 -44.11013245 164.37369965 -44.0642395 165.10148621 C-43.96564887 168.95551263 -44.47542979 171.3342112 -46.84716797 174.29614258 C-50.75076704 178.10252833 -54.25613328 178.94967585 -59.56640625 179.19921875 C-65.40324197 178.73597782 -65.40324197 178.73597782 -68.50390625 175.88671875 C-72.45704597 169.43626981 -74.48639257 163.51803919 -74.8203125 155.96484375 C-74.8831543 154.56443848 -74.8831543 154.56443848 -74.94726562 153.13574219 C-74.98658203 152.14606445 -75.02589844 151.15638672 -75.06640625 150.13671875 C-75.10958984 149.10321289 -75.15277344 148.06970703 -75.19726562 147.00488281 C-75.42368671 141.20958121 -75.54450104 135.43597504 -75.50390625 129.63671875 C-75.50841797 128.98614502 -75.51292969 128.33557129 -75.51757812 127.6652832 C-75.5393576 124.36530433 -75.5135199 121.08790742 -75.35595703 117.79052734 C-74.22936277 101.15062259 -74.22936277 101.15062259 -81.484375 86.859375 C-84.11278491 84.29197267 -86.82916906 81.8683344 -89.64794922 79.51220703 C-92.31520406 77.17616616 -94.37750938 74.61384203 -96.56640625 71.82421875 C-98.86734855 68.93406319 -101.17827971 66.08837192 -103.62890625 63.32421875 C-106.49259509 60.00795783 -108.95096819 56.46492968 -111.4296875 52.85546875 C-114.49151641 48.47319008 -117.67658164 44.18304719 -120.86010742 39.88867188 C-124.65292873 34.75229523 -125.91369426 32.55209465 -125.14453125 26.27734375 C-123.89231106 21.6044245 -120.66974825 18.18885453 -116.57421875 15.7265625 C-114.33871588 14.81970756 -112.59875845 14.48934122 -110.19140625 14.38671875 C-109.47339844 14.33515625 -108.75539063 14.28359375 -108.015625 14.23046875 C-100.43148953 16.21201581 -95.71892747 24.23624036 -91.44140625 30.26171875 C-90.2633022 31.89473427 -89.08491938 33.52754872 -87.90625 35.16015625 C-86.27359795 37.42589616 -84.64189392 39.69161697 -83.02929688 41.97167969 C-79.19359041 47.27643564 -74.80652193 51.8190651 -70.12890625 56.38671875 C-69.39285156 57.11375 -68.65679688 57.84078125 -67.8984375 58.58984375 C-66.10479995 60.36018731 -64.30663692 62.12564378 -62.50390625 63.88671875 C-47.22316669 52.66342341 -47.22316669 52.66342341 -35.4453125 37.98046875 C-11.29105202 -0.51082763 -11.29105202 -0.51082763 0 0 Z " fill="#0F6F6C" transform="translate(2149.50390625,703.11328125)"/>
<path d="M0 0 C0.99 0.33 1.98 0.66 3 1 C-3.93 7.93 -10.86 14.86 -18 22 C-18.66 21.67 -19.32 21.34 -20 21 C-19.25556641 20.27296875 -19.25556641 20.27296875 -18.49609375 19.53125 C-14.3482106 15.43846207 -10.40827059 11.24955434 -6.609375 6.83203125 C-4.50760458 4.43948191 -2.28559058 2.21633026 0 0 Z " fill="#227974" transform="translate(296,487)"/>
</svg>
